<svg width="1251" height="558" viewBox="0 0 1251 558" fill="none" xmlns="http://www.w3.org/2000/svg">
<path fill-rule="evenodd" clip-rule="evenodd" d="M182.043 316.852L453.995 489.17L453.042 506.604L135.915 425.74C127.907 423.728 119.499 425.274 112.527 430.042C105.555 434.81 100.584 442.411 98.7016 451.187L86.6803 508L47.07 505.396L139.694 329.308C143.823 321.514 150.594 315.83 158.528 313.496C166.463 311.163 174.917 312.369 182.043 316.852ZM277.944 191.134L6.00452 18.8302L6.95839 1.39587L324.085 82.2597C332.093 84.2761 340.503 82.7313 347.476 77.963C354.449 73.1946 359.419 65.5905 361.298 56.8128L373.332 0L412.942 2.60376L320.318 178.679C316.189 186.48 309.414 192.169 301.473 194.503C293.533 196.837 285.073 195.626 277.944 191.134ZM174.18 200.637L17.1575 499.102L1.27183 498.055L74.9525 150.024C76.7867 141.234 75.378 132.005 71.034 124.351C66.6899 116.696 59.7633 111.239 51.766 109.17L0 95.9764L2.37246 52.518L162.819 154.172C169.922 158.698 175.103 166.126 177.232 174.832C179.361 183.539 178.263 192.815 174.18 200.637ZM285.832 307.364L442.842 8.89841L458.728 9.94531L385.047 357.976C383.21 366.764 384.618 375.994 388.963 383.647C393.307 391.3 400.236 396.754 408.234 398.817L460 412.01L457.628 455.482L297.181 353.815C290.076 349.293 284.893 341.867 282.766 333.161C280.639 324.455 281.742 315.179 285.832 307.364Z" fill="url(#paint0_linear_2955_256)"/>
<path d="M1198.95 491.028C1205.73 482.296 1210.95 472.491 1214.32 462.173C1217.68 451.856 1219.13 441.228 1218.56 430.896C1218 420.564 1215.45 410.731 1211.05 401.958C1206.65 393.185 1200.48 385.644 1192.91 379.765C1185.34 373.887 1176.5 369.786 1166.91 367.696C1157.32 365.607 1147.16 365.57 1137.02 367.588C1126.87 369.606 1116.93 373.639 1107.77 379.457C1098.61 385.276 1090.4 392.765 1083.62 401.497L1141.29 446.263L1198.95 491.028Z" fill="#067164" fill-opacity="0.1"/>
<defs>
<linearGradient id="paint0_linear_2955_256" x1="2.14472e-05" y1="-8.28323e-06" x2="217.206" y2="562.397" gradientUnits="userSpaceOnUse">
<stop stop-color="white"/>
<stop offset="1" stop-opacity="0.8"/>
</linearGradient>
</defs>
</svg>
